<svg width="38" height="37" viewBox="0 0 38 37" fill="none" xmlns="http://www.w3.org/2000/svg">
<path d="M26.4734 0.0799977L23.0744 7.35477C21.5218 10.6778 16.8404 10.7984 15.1187 7.5598L11.3495 0.46978L14.09 8.01728C15.3419 11.4649 12.117 14.8604 8.60951 13.7878L0.930862 11.4396L8.20563 14.8386C11.5286 16.3912 11.6493 21.0726 8.41066 22.7943L1.32064 26.5635L8.86814 23.8229C12.3157 22.5711 15.7112 25.796 14.6386 29.3035L12.2905 36.9821L15.6895 29.7074C17.2421 26.3844 21.9234 26.2637 23.6452 29.5023L27.4144 36.5923L24.6738 29.0449C23.422 25.5973 26.6469 22.2017 30.1544 23.2744L37.833 25.6225L30.5582 22.2235C27.2352 20.6709 27.1146 15.9896 30.3532 14.2678L37.4432 10.4986L29.8957 13.2392C26.4481 14.491 23.0526 11.2661 24.1252 7.75864L26.4734 0.0799977Z" fill="rgb(254 215 170)"/>
</svg>
