<svg width="243" height="242" viewBox="0 0 243 242" fill="none" xmlns="http://www.w3.org/2000/svg">
<path d="M111.714 228H114.356C114.513 228.76 114.786 229.428 115.177 230.003C115.56 230.578 116.029 231.061 116.583 231.452C117.13 231.849 117.737 232.148 118.405 232.347C119.072 232.545 119.768 232.645 120.493 232.645C121.814 232.645 123.01 232.311 124.083 231.643C125.148 230.976 125.997 229.992 126.629 228.692C127.254 227.393 127.566 225.798 127.566 223.909C127.566 222.02 127.254 220.425 126.629 219.126C125.997 217.826 125.148 216.842 124.083 216.175C123.01 215.507 121.814 215.173 120.493 215.173C119.768 215.173 119.072 215.273 118.405 215.472C117.737 215.67 117.13 215.965 116.583 216.356C116.029 216.754 115.56 217.24 115.177 217.815C114.786 218.398 114.513 219.065 114.356 219.818H111.714C111.913 218.703 112.275 217.705 112.801 216.825C113.326 215.944 113.98 215.195 114.761 214.577C115.542 213.966 116.419 213.501 117.392 213.181C118.358 212.862 119.392 212.702 120.493 212.702C122.353 212.702 124.008 213.156 125.457 214.065C126.906 214.974 128.046 216.267 128.877 217.943C129.708 219.619 130.123 221.608 130.123 223.909C130.123 226.21 129.708 228.199 128.877 229.875C128.046 231.551 126.906 232.844 125.457 233.753C124.008 234.662 122.353 235.116 120.493 235.116C119.392 235.116 118.358 234.957 117.392 234.637C116.419 234.317 115.542 233.849 114.761 233.231C113.98 232.62 113.326 231.874 112.801 230.994C112.275 230.12 111.913 229.122 111.714 228Z" fill="black"/>
<path d="M105.085 211.267C106.54 211.523 107.755 212.095 108.731 212.981C109.7 213.866 110.383 214.985 110.779 216.338C111.168 217.691 111.215 219.199 110.922 220.864C110.626 222.542 110.063 223.954 109.234 225.099C108.398 226.242 107.373 227.064 106.16 227.564C104.94 228.063 103.602 228.184 102.147 227.927C100.692 227.671 99.4804 227.1 98.5114 226.215C97.5354 225.329 96.8535 224.207 96.4657 222.847C96.071 221.487 96.0216 219.967 96.3176 218.289C96.6111 216.624 97.1754 215.223 98.0104 214.087C98.8385 212.949 99.8626 212.131 101.083 211.632C102.296 211.132 103.63 211.01 105.085 211.267ZM104.693 213.491C103.588 213.296 102.628 213.419 101.815 213.86C101.002 214.301 100.342 214.952 99.8368 215.815C99.3313 216.678 98.9835 217.648 98.7936 218.725C98.6037 219.802 98.5981 220.836 98.7768 221.827C98.9554 222.818 99.3509 223.663 99.9632 224.362C100.576 225.061 101.434 225.508 102.539 225.703C103.644 225.898 104.604 225.772 105.419 225.324C106.233 224.876 106.894 224.217 107.401 223.348C107.908 222.478 108.256 221.504 108.446 220.427C108.636 219.35 108.641 218.32 108.461 217.336C108.281 216.352 107.884 215.514 107.271 214.822C106.657 214.129 105.798 213.686 104.693 213.491Z" fill="black"/>
<path d="M89.8877 218.056L93.2545 208.806L95.617 209.666L90.0203 225.043L87.7379 224.212L88.6123 221.809L88.4121 221.736C87.7675 222.386 86.9919 222.814 86.0853 223.021C85.1763 223.234 84.1411 223.129 82.9799 222.707C81.9387 222.328 81.1055 221.783 80.4801 221.071C79.8523 220.367 79.4781 219.505 79.3577 218.486C79.2348 217.474 79.4114 216.314 79.8875 215.006L83.4438 205.235L85.8063 206.095L82.3084 215.705C81.8687 216.913 81.8399 217.969 82.2219 218.871C82.6015 219.78 83.3385 220.434 84.4331 220.832C85.1872 221.107 85.9208 221.189 86.6338 221.078C87.3402 220.964 87.9777 220.656 88.5464 220.153C89.1151 219.649 89.5622 218.95 89.8877 218.056Z" fill="black"/>
<path d="M63.4067 208.644L65.6822 209.22C65.617 209.617 65.6156 210.039 65.6779 210.485C65.7305 210.933 65.9012 211.376 66.19 211.814C66.4787 212.251 66.9399 212.652 67.5734 213.018C68.4407 213.519 69.2788 213.736 70.0878 213.67C70.8871 213.607 71.4625 213.271 71.8141 212.662C72.1266 212.121 72.1765 211.579 71.964 211.038C71.7515 210.498 71.2873 209.881 70.5716 209.189L68.7663 207.458C67.6768 206.419 67.0043 205.403 66.7489 204.411C66.4899 203.425 66.6462 202.437 67.2179 201.446C67.6867 200.634 68.3395 200.044 69.1762 199.674C70.0069 199.301 70.9439 199.169 71.9873 199.279C73.0307 199.39 74.1029 199.763 75.2039 200.398C76.6493 201.233 77.6645 202.237 78.2495 203.412C78.8345 204.586 78.9051 205.849 78.4613 207.2L76.0963 206.523C76.3398 205.647 76.298 204.86 75.9707 204.163C75.6373 203.462 75.0247 202.854 74.1329 202.339C73.118 201.753 72.1879 201.503 71.3427 201.589C70.4878 201.678 69.8846 202.026 69.533 202.635C69.2489 203.127 69.1832 203.639 69.3359 204.17C69.4851 204.707 69.8684 205.265 70.486 205.843L72.5283 207.76C73.6486 208.817 74.3267 209.844 74.5628 210.841C74.7891 211.841 74.62 212.83 74.0554 213.808C73.5937 214.608 72.9608 215.186 72.1567 215.541C71.3464 215.894 70.4495 216.02 69.466 215.919C68.4763 215.815 67.4832 215.476 66.4868 214.9C65.0844 214.091 64.161 213.147 63.7165 212.071C63.2658 210.99 63.1626 209.848 63.4067 208.644Z" fill="black"/>
<path d="M54.5772 194.096L48.3593 201.506L46.4333 199.89L56.9516 187.355L58.8776 188.971L57.0972 191.092L57.2278 191.202C58.0557 190.812 58.967 190.654 59.9615 190.728C60.9516 190.808 61.9199 191.245 62.8666 192.04C63.65 192.697 64.2026 193.453 64.5244 194.307C64.8416 195.166 64.8821 196.09 64.6459 197.079C64.4052 198.073 63.8374 199.103 62.9427 200.17L56.2591 208.135L54.3331 206.519L60.9071 198.684C61.6741 197.77 62.0301 196.826 61.9752 195.853C61.9149 194.875 61.4848 194.051 60.685 193.38C60.2062 192.978 59.6166 192.692 58.9161 192.521C58.2101 192.346 57.4761 192.37 56.7143 192.593C55.9469 192.811 55.2346 193.312 54.5772 194.096Z" fill="black"/>
<path d="M33.003 193.199L49.7167 179.174L51.3328 181.1L34.6191 195.125L33.003 193.199Z" fill="black"/>
<path d="M24.9202 171.312L26.7654 170.247L31.0054 177.591L29.1602 178.656L24.9202 171.312ZM24.5292 178.476L23.2721 176.298L36.7791 168.5C37.3942 168.145 37.804 167.79 38.0086 167.434C38.2034 167.075 38.2715 166.724 38.2127 166.381C38.1442 166.035 38.0176 165.702 37.833 165.382C37.6945 165.142 37.5685 164.953 37.4551 164.813C37.3356 164.677 37.24 164.568 37.1683 164.487L38.8685 162.915C39.0091 163.03 39.1834 163.204 39.3915 163.437C39.6057 163.666 39.83 163.983 40.0644 164.389C40.4195 165.004 40.6352 165.683 40.7117 166.427C40.7845 167.164 40.6622 167.882 40.3447 168.582C40.0236 169.276 39.4509 169.861 38.6267 170.337L24.5292 178.476Z" fill="black"/>
<path d="M34.8691 152.351C35.3743 153.739 35.4873 155.077 35.2079 156.365C34.9262 157.647 34.2982 158.797 33.324 159.817C32.3473 160.83 31.0648 161.626 29.4764 162.204C27.8747 162.787 26.3708 163.005 24.9648 162.86C23.5564 162.707 22.3324 162.231 21.2927 161.43C20.2507 160.623 19.477 159.525 18.9717 158.137C18.4665 156.748 18.3547 155.414 18.6365 154.132C18.9159 152.844 19.5472 151.692 20.5305 150.676C21.5114 149.654 22.8027 148.852 24.4044 148.269C25.9928 147.691 27.4879 147.479 28.8896 147.634C30.2889 147.782 31.5096 148.26 32.5517 149.067C33.5914 149.868 34.3638 150.962 34.8691 152.351ZM32.7468 153.123C32.363 152.068 31.7769 151.299 30.9885 150.815C30.2002 150.331 29.306 150.086 28.306 150.08C27.306 150.073 26.2921 150.257 25.2643 150.631C24.2365 151.005 23.3383 151.517 22.5697 152.168C21.8011 152.818 21.2671 153.583 20.9676 154.463C20.6681 155.343 20.7102 156.31 21.094 157.364C21.4778 158.419 22.0673 159.187 22.8623 159.668C23.6573 160.15 24.5582 160.393 25.5648 160.397C26.5715 160.4 27.5887 160.215 28.6165 159.841C29.6443 159.467 30.5392 158.956 31.3011 158.309C32.063 157.661 32.5904 156.898 32.8832 156.021C33.1761 155.143 33.1306 154.177 32.7468 153.123Z" fill="black"/>
<path d="M30.9672 140.206L14.8522 143.047L14.4304 140.655L16.8645 140.226L16.8349 140.058C15.9857 139.905 15.245 139.487 14.6127 138.806C13.9805 138.124 13.5792 137.3 13.409 136.335C13.377 136.153 13.3404 135.925 13.2993 135.651C13.2582 135.377 13.2323 135.169 13.2216 135.027L15.7396 134.583C15.7334 134.67 15.7359 134.868 15.7469 135.176C15.7498 135.479 15.7802 135.794 15.8381 136.123C15.9763 136.906 16.2639 137.577 16.7012 138.134C17.1303 138.686 17.663 139.09 18.2994 139.346C18.9276 139.595 19.6054 139.656 20.3329 139.528L30.5307 137.73L30.9672 140.206Z" fill="black"/>
<path d="M29 122.258L12.6364 122.258L12.6364 119.744L29 119.744V122.258ZM9.90909 120.98C9.90909 121.47 9.74219 121.893 9.40838 122.248C9.07457 122.596 8.6733 122.77 8.20455 122.77C7.7358 122.77 7.33452 122.596 7.00071 122.248C6.6669 121.893 6.5 121.47 6.5 120.98C6.5 120.49 6.6669 120.071 7.00071 119.723C7.33452 119.368 7.7358 119.19 8.20455 119.19C8.6733 119.19 9.07457 119.368 9.40838 119.723C9.74219 120.071 9.90909 120.49 9.90909 120.98Z" fill="black"/>
<path d="M30.6303 105.914C30.4502 106.935 30.0944 107.828 29.563 108.592C29.0245 109.356 28.3449 109.917 27.5242 110.278C26.6965 110.636 25.758 110.723 24.7089 110.538C23.7856 110.376 23.0693 110.062 22.5599 109.597C22.0435 109.131 21.6746 108.565 21.4531 107.898C21.2317 107.232 21.1053 106.517 21.0739 105.754C21.0368 104.983 21.0352 104.215 21.0693 103.449C21.116 102.448 21.1616 101.637 21.2059 101.018C21.2445 100.39 21.208 99.9218 21.0965 99.6137C20.9862 99.2986 20.7317 99.1058 20.333 99.0356L20.2491 99.0208C19.2139 98.8382 18.3596 98.9797 17.6862 99.4451C17.014 99.9035 16.5774 100.703 16.3763 101.843C16.1679 103.025 16.2633 103.997 16.6625 104.76C17.0617 105.523 17.531 106.092 18.0704 106.469L16.8167 108.671C15.9115 108.078 15.2477 107.384 14.8255 106.589C14.3975 105.785 14.1485 104.948 14.0784 104.077C14.0026 103.198 14.0362 102.353 14.1793 101.542C14.2706 101.024 14.4383 100.441 14.6826 99.7917C14.9212 99.1342 15.2848 98.524 15.7735 97.9611C16.2634 97.3912 16.9266 96.9637 17.7629 96.6785C18.5993 96.3932 19.6575 96.3634 20.9375 96.5891L31.5549 98.4613L31.1183 100.937L28.9361 100.553L28.9139 100.678C29.234 100.908 29.5589 101.254 29.8885 101.716C30.2181 102.178 30.4655 102.759 30.6305 103.458C30.7956 104.158 30.7955 104.977 30.6303 105.914ZM28.4726 105.144C28.6453 104.165 28.5985 103.306 28.3322 102.566C28.0671 101.82 27.6606 101.222 27.1125 100.772C26.5656 100.315 25.9565 100.027 25.285 99.9087L23.0189 99.5091C23.1263 99.6363 23.201 99.8874 23.243 100.263C23.2792 100.63 23.2951 101.051 23.2907 101.526C23.2805 101.993 23.2651 102.448 23.2446 102.892C23.2183 103.327 23.1992 103.681 23.1873 103.952C23.1578 104.611 23.1881 105.236 23.2783 105.829C23.3627 106.414 23.5601 106.91 23.8704 107.318C24.1749 107.718 24.6419 107.974 25.2714 108.085C26.1317 108.236 26.8383 108.033 27.3911 107.474C27.9382 106.907 28.2988 106.13 28.4726 105.144Z" fill="black"/>
<path d="M37.8366 78.7968C37.0483 80.1623 36.0669 81.1661 34.8924 81.8084C33.7152 82.4409 32.4279 82.7105 31.0302 82.6171C29.63 82.5139 28.2041 82.0433 26.7525 81.2052C25.301 80.3672 24.1743 79.3641 23.3726 78.1959C22.5682 77.018 22.1307 75.7731 22.0599 74.461C21.9865 73.1393 22.3191 71.8388 23.0577 70.5594C23.4839 69.8213 24.0277 69.1635 24.6892 68.5859C25.3507 68.0083 26.1287 67.5841 27.0232 67.3132C27.9115 67.0388 28.909 66.9873 30.0155 67.1587C31.1221 67.3301 32.3366 67.7976 33.659 68.5611L34.5816 69.0937L28.2748 80.0175L26.3927 78.9308L31.4211 70.2214C30.6215 69.7597 29.8157 69.5077 29.0036 69.4653C28.1951 69.4168 27.4408 69.5799 26.7405 69.9547C26.0438 70.3234 25.4682 70.9014 25.0137 71.6887C24.5129 72.5559 24.295 73.4306 24.3598 74.3127C24.422 75.1851 24.6968 75.9876 25.1842 76.72C25.6716 77.4525 26.3059 78.0442 27.087 78.4952L28.3418 79.2196C29.412 79.8375 30.4258 80.1768 31.3831 80.2375C32.3378 80.2884 33.2007 80.0936 33.9717 79.653C34.7366 79.2089 35.3729 78.5471 35.8807 77.6675C36.211 77.0955 36.4293 76.5327 36.5357 75.979C36.6395 75.4157 36.6261 74.8708 36.4954 74.3443C36.3586 73.8142 36.0974 73.3149 35.7119 72.8463L37.5168 71.0836C38.1025 71.717 38.515 72.4513 38.7544 73.2866C38.9877 74.1184 39.0331 75.0057 38.8906 75.9486C38.7419 76.8879 38.3906 77.8373 37.8366 78.7968Z" fill="black"/>
<path d="M45.9443 65.7047L33.4091 55.1864L34.9704 53.3257L36.929 54.9692L37.066 54.806C36.6159 53.9833 36.4501 53.1257 36.5687 52.2331C36.6817 51.3359 37.0807 50.4793 37.7655 49.6632C38.4594 48.8362 39.2246 48.3055 40.0611 48.071C40.8967 47.8265 41.7792 47.8299 42.7086 48.0813L42.8182 47.9507C42.4401 47.0865 42.33 46.1736 42.4879 45.212C42.6403 44.2459 43.0931 43.314 43.8464 42.4162C44.7868 41.2955 45.907 40.6732 47.2069 40.5494C48.5013 40.421 49.8858 40.9754 51.3602 42.2126L59.7497 49.2522L58.1336 51.1782L49.7441 44.1386C48.8192 43.3625 47.9458 43.0608 47.1241 43.2335C46.3024 43.4062 45.6039 43.8353 45.0287 44.5209C44.2891 45.4023 43.9828 46.3088 44.1096 47.2404C44.2311 48.1674 44.6971 48.9711 45.5078 49.6513L53.6688 56.4992L52.0253 58.4578L43.4399 51.2538C42.7272 50.6558 41.9592 50.4054 41.1359 50.5026C40.3071 50.5953 39.5869 51.0061 38.9751 51.7352C38.5551 52.2357 38.2958 52.8155 38.1972 53.4744C38.1031 54.1279 38.1809 54.7866 38.4306 55.4503C38.6793 56.1041 39.1111 56.6889 39.7259 57.2048L47.5604 63.7788L45.9443 65.7047Z" fill="black"/>
<path d="M73.4837 24.8806C72.922 24.3766 72.3331 23.9744 71.7169 23.6741C71.1032 23.3641 70.4676 23.1652 69.8101 23.0774C69.1587 22.986 68.4937 23.0132 67.8151 23.1589C67.1366 23.3047 66.4559 23.5746 65.7732 23.9688C64.6537 24.6151 63.8027 25.4919 63.22 26.5992C62.6374 27.7065 62.4004 28.9792 62.509 30.4173C62.6175 31.8554 63.1441 33.3925 64.0887 35.0286C65.0333 36.6646 66.1043 37.8875 67.3016 38.697C68.4988 39.5065 69.7318 39.9305 71.0006 39.9689C72.2693 40.0073 73.488 39.6891 74.6566 39.0144C75.7391 38.3894 76.5593 37.6083 77.1172 36.6712C77.6777 35.7243 77.9435 34.6933 77.9148 33.5782C77.8886 32.4533 77.5417 31.3128 76.8741 30.1564L77.6605 29.8992L71.9772 33.1805L70.8054 31.1507L78.0017 26.9959L79.1736 29.0256C80.0721 30.5818 80.5212 32.1267 80.5209 33.6604C80.5269 35.1906 80.1315 36.608 79.3348 37.9127C78.5406 39.2077 77.3932 40.2884 75.8924 41.1549C74.2194 42.1208 72.5221 42.5759 70.8005 42.5201C69.085 42.4608 67.4546 41.9095 65.9092 40.8663C64.37 39.8196 63.025 38.2998 61.8745 36.307C61.0115 34.8123 60.4355 33.353 60.1464 31.9289C59.8599 30.4951 59.8424 29.1439 60.094 27.8751C60.3456 26.6063 60.8461 25.4562 61.5956 24.4248C62.3451 23.3934 63.3257 22.5279 64.5374 21.8284C65.5338 21.2531 66.5496 20.8675 67.5847 20.6718C68.6224 20.4663 69.6376 20.442 70.6302 20.5987C71.6254 20.7458 72.569 21.0663 73.461 21.56C74.3494 22.0476 75.1442 22.6999 75.8456 23.517L73.4837 24.8806Z" fill="black"/>
<path d="M88.88 35.1945C87.9056 35.5491 86.9545 35.6875 86.0267 35.6095C85.0965 35.5248 84.2703 35.2171 83.548 34.6864C82.8234 34.149 82.2789 33.3797 81.9145 32.3786C81.5939 31.4977 81.5075 30.7204 81.6553 30.0468C81.8008 29.3666 82.1067 28.7639 82.5732 28.2389C83.0396 27.7139 83.5953 27.2471 84.2402 26.8386C84.8893 26.4209 85.554 26.0354 86.2341 25.682C87.1247 25.2218 87.8494 24.856 88.4082 24.5846C88.9712 24.3041 89.3582 24.0385 89.5693 23.7879C89.7871 23.5348 89.8267 23.218 89.6883 22.8376L89.6591 22.7575C89.2996 21.7698 88.75 21.1007 88.0102 20.7502C87.2771 20.3972 86.3666 20.4187 85.2788 20.8147C84.1509 21.2252 83.3564 21.794 82.8955 22.5211C82.4346 23.2481 82.176 23.9393 82.1197 24.5947L79.5858 24.61C79.6461 23.5299 79.9153 22.6081 80.3932 21.8446C80.8754 21.072 81.4759 20.4378 82.1948 19.9418C82.918 19.4367 83.6666 19.0433 84.4408 18.7615C84.9347 18.5818 85.5238 18.4354 86.2082 18.3223C86.8969 18.2002 87.6072 18.21 88.339 18.3517C89.0775 18.4911 89.7793 18.8516 90.4446 19.4333C91.1098 20.015 91.6646 20.9166 92.1092 22.1379L95.7966 32.2689L93.434 33.1289L92.6761 31.0466L92.556 31.0903C92.5173 31.4823 92.3803 31.9365 92.145 32.453C91.9097 32.9694 91.5303 33.4741 91.0068 33.9669C90.4833 34.4598 89.7744 34.869 88.88 35.1945ZM88.468 32.941C89.4023 32.6009 90.1231 32.1308 90.6302 31.5305C91.1439 30.9278 91.4587 30.2766 91.5743 29.577C91.6967 28.8749 91.6413 28.2035 91.4081 27.5628L90.6211 25.4004C90.5647 25.557 90.3845 25.7473 90.0806 25.9713C89.7809 26.1862 89.4242 26.4105 89.0104 26.6442C88.6009 26.8688 88.199 27.0831 87.8046 27.2871C87.4145 27.482 87.0987 27.6423 86.8573 27.768C86.2724 28.0716 85.7458 28.4106 85.2775 28.7851C84.8134 29.1506 84.4822 29.5696 84.2839 30.0424C84.0899 30.506 84.1022 31.0382 84.3208 31.6388C84.6196 32.4597 85.1492 32.9699 85.9095 33.1693C86.6741 33.3596 87.527 33.2835 88.468 32.941Z" fill="black"/>
<path d="M108.782 16.8403L106.669 17.862C106.464 17.5159 106.194 17.1921 105.86 16.8905C105.531 16.5806 105.115 16.351 104.613 16.2016C104.111 16.0522 103.499 16.041 102.779 16.168C101.793 16.3419 101.011 16.7141 100.434 17.2847C99.8622 17.847 99.6374 18.4744 99.7595 19.1669C99.8681 19.7824 100.178 20.229 100.688 20.5068C101.199 20.7846 101.951 20.9585 102.944 21.0286L105.439 21.1943C106.942 21.29 108.11 21.6357 108.943 22.2316C109.776 22.8205 110.291 23.6779 110.489 24.804C110.652 25.7273 110.532 26.5995 110.129 27.4206C109.732 28.2406 109.099 28.9436 108.229 29.5297C107.359 30.1159 106.298 30.5194 105.046 30.7401C103.402 31.0299 101.979 30.9131 100.776 30.3896C99.5727 29.8661 98.707 28.9442 98.1785 27.6239L100.425 26.622C100.802 27.4498 101.34 28.0257 102.039 28.3495C102.745 28.6722 103.605 28.7441 104.619 28.5653C105.773 28.3618 106.646 27.9554 107.238 27.3462C107.836 26.7287 108.074 26.0738 107.952 25.3813C107.853 24.8218 107.575 24.3877 107.116 24.0791C106.657 23.7634 106.005 23.5827 105.16 23.5369L102.363 23.381C100.826 23.2915 99.6461 22.9406 98.8241 22.3283C98.008 21.7078 97.5018 20.8415 97.3057 19.7293C97.1454 18.8201 97.2589 17.9707 97.6461 17.1812C98.0404 16.3905 98.6465 15.7175 99.4645 15.1622C100.289 14.6057 101.268 14.2275 102.402 14.0277C103.996 13.7465 105.31 13.8755 106.343 14.4146C107.382 14.9525 108.195 15.761 108.782 16.8403Z" fill="black"/>
<path d="M125.468 12.6364V14.767L116.988 14.767V12.6364L125.468 12.6364ZM119.46 8.71591L121.974 8.71591V24.3125C121.974 25.0227 122.077 25.5554 122.283 25.9105C122.496 26.2585 122.766 26.4929 123.093 26.6136C123.426 26.7273 123.778 26.7841 124.147 26.7841C124.424 26.7841 124.652 26.7699 124.829 26.7415C125.007 26.706 125.149 26.6776 125.255 26.6563L125.767 28.9148C125.596 28.9787 125.358 29.0426 125.053 29.1065C124.748 29.1776 124.36 29.2131 123.892 29.2131C123.181 29.2131 122.485 29.0604 121.804 28.755C121.129 28.4496 120.568 27.9844 120.12 27.3594C119.68 26.7344 119.46 25.946 119.46 24.9943V8.71591Z" fill="black"/>
<path d="M133.746 29.8281L136.587 13.7131L138.979 14.1349L138.55 16.5689L138.718 16.5985C139.152 15.853 139.798 15.2997 140.655 14.9388C141.512 14.5778 142.423 14.4825 143.388 14.6527C143.57 14.6847 143.797 14.7283 144.068 14.7834C144.34 14.8385 144.544 14.8854 144.682 14.924L144.238 17.442C144.157 17.4062 143.971 17.3408 143.677 17.2458C143.392 17.1451 143.085 17.0657 142.756 17.0077C141.973 16.8696 141.245 16.9107 140.571 17.1309C139.906 17.3453 139.344 17.7078 138.887 18.2185C138.437 18.7234 138.148 19.3395 138.02 20.0669L136.222 30.2647L133.746 29.8281Z" fill="black"/>
<path d="M152.348 34.8682C150.96 34.3629 149.862 33.5892 149.055 32.5471C148.254 31.5075 147.776 30.2868 147.621 28.8851C147.473 27.4858 147.688 25.9919 148.266 24.4035C148.849 22.8018 149.648 21.5092 150.664 20.5259C151.686 19.5451 152.838 18.9137 154.119 18.632C155.408 18.3526 156.746 18.4656 158.134 18.9708C159.522 19.4761 160.617 20.2485 161.417 21.2882C162.225 22.3303 162.701 23.5543 162.847 24.9603C163 26.3687 162.784 27.8738 162.201 29.4755C161.623 31.0639 160.824 32.3452 159.805 33.3194C158.792 34.296 157.641 34.924 156.353 35.2034C155.071 35.4852 153.736 35.3734 152.348 34.8682ZM153.12 32.7459C154.175 33.1297 155.141 33.1751 156.018 32.8823C156.896 32.5895 157.659 32.0621 158.306 31.3002C158.954 30.5383 159.465 29.6434 159.839 28.6156C160.213 27.5878 160.398 26.5706 160.394 25.5639C160.39 24.5573 160.147 23.6564 159.666 22.8614C159.184 22.0663 158.416 21.4769 157.362 21.0931C156.307 20.7093 155.34 20.6672 154.46 20.9667C153.58 21.2662 152.815 21.8002 152.165 22.5688C151.515 23.3374 151.003 24.2356 150.629 25.2634C150.255 26.2912 150.071 27.3051 150.077 28.3051C150.084 29.3051 150.329 30.1993 150.813 30.9876C151.297 31.776 152.066 32.3621 153.12 32.7459Z" fill="black"/>
<path d="M168.493 30.8212L163.571 39.3461L161.394 38.089L169.576 23.9177L171.679 25.1322L170.401 27.3465L170.585 27.453C171.333 26.9251 172.171 26.6381 173.1 26.5921C174.032 26.5398 175.033 26.8227 176.104 27.4406C177.063 27.9945 177.789 28.6761 178.282 29.4852C178.777 30.2882 178.996 31.2018 178.938 32.2261C178.883 33.2442 178.508 34.3561 177.812 35.5616L172.613 44.5663L170.436 43.3092L175.549 34.4521C176.192 33.3388 176.404 32.3047 176.184 31.3496C175.968 30.3885 175.356 29.6167 174.347 29.0343C173.652 28.633 172.944 28.425 172.222 28.4104C171.507 28.3993 170.826 28.5922 170.178 28.9893C169.531 29.3864 168.969 29.997 168.493 30.8212Z" fill="black"/>
<path d="M179.916 50.7842C178.785 49.8346 178.018 48.7322 177.615 47.4768C177.219 46.226 177.187 44.9155 177.521 43.5453C177.86 42.1797 178.573 40.8495 179.66 39.5546C180.755 38.2488 181.949 37.3076 183.239 36.7309C184.535 36.1588 185.833 35.9595 187.134 36.133C188.44 36.3111 189.659 36.875 190.791 37.8246C191.922 38.7741 192.687 39.8743 193.083 41.1251C193.486 42.3805 193.515 43.6937 193.171 45.0648C192.833 46.4404 192.116 47.7811 191.02 49.0868C189.933 50.3817 188.744 51.3125 187.453 51.8792C186.167 52.4504 184.871 52.647 183.565 52.4689C182.264 52.2953 181.048 51.7338 179.916 50.7842ZM181.368 49.0541C182.228 49.7754 183.12 50.1485 184.045 50.1735C184.969 50.1984 185.866 49.9637 186.736 49.4692C187.605 48.9748 188.391 48.3086 189.094 47.4707C189.797 46.6329 190.319 45.7403 190.659 44.793C191 43.8457 191.08 42.9161 190.899 42.0043C190.719 41.0925 190.199 40.276 189.339 39.5547C188.479 38.8334 187.585 38.463 186.656 38.4434C185.726 38.4239 184.825 38.6641 183.951 39.164C183.077 39.6639 182.289 40.3328 181.586 41.1707C180.883 42.0085 180.363 42.8984 180.027 43.8403C179.691 44.7821 179.616 45.7062 179.801 46.6126C179.986 47.5189 180.508 48.3328 181.368 49.0541Z" fill="black"/>
<path d="M189.897 60.0223L202.432 49.504L203.993 51.3647L202.034 53.0082L202.171 53.1714C203.06 52.871 203.933 52.8567 204.792 53.1284C205.656 53.3956 206.43 53.9372 207.115 54.7533C207.809 55.5803 208.198 56.426 208.284 57.2905C208.38 58.1559 208.223 59.0244 207.814 59.8961L207.924 60.0266C208.84 59.8044 209.759 59.8544 210.678 60.1769C211.603 60.4947 212.442 61.1025 213.196 62.0002C214.136 63.121 214.554 64.3322 214.451 65.6339C214.352 66.9309 213.566 68.1981 212.091 69.4353L203.702 76.4749L202.086 74.5489L210.475 67.5093C211.4 66.7332 211.849 65.9255 211.822 65.0863C211.794 64.247 211.493 63.4846 210.918 62.7991C210.178 61.9177 209.338 61.4586 208.399 61.4218C207.465 61.3804 206.593 61.6998 205.782 62.38L197.621 69.2279L195.977 67.2693L204.563 60.0653C205.276 59.4673 205.656 58.7544 205.703 57.9267C205.755 57.0945 205.476 56.3138 204.864 55.5848C204.444 55.0843 203.918 54.7282 203.286 54.5167C202.659 54.3105 201.997 54.2728 201.3 54.4034C200.613 54.5348 199.962 54.8585 199.347 55.3744L191.513 61.9483L189.897 60.0223Z" fill="black"/>
<path d="M205.045 79.9102L219.216 71.7284L220.474 73.9057L206.302 82.0875L205.045 79.9102ZM222.218 71.4719C221.972 71.0474 221.906 70.598 222.017 70.1236C222.132 69.6553 222.393 69.304 222.799 69.0696C223.205 68.8352 223.639 68.7853 224.102 68.9198C224.569 69.0604 224.925 69.3429 225.17 69.7673C225.415 70.1917 225.48 70.6381 225.365 71.1063C225.253 71.5808 224.995 71.9352 224.589 72.1696C224.183 72.4039 223.746 72.4508 223.28 72.3102C222.817 72.1757 222.463 71.8963 222.218 71.4719Z" fill="black"/>
<path d="M211.806 94.88C211.451 93.9056 211.313 92.9545 211.391 92.0267C211.475 91.0965 211.783 90.2703 212.314 89.548C212.851 88.8234 213.62 88.2789 214.621 87.9145C215.502 87.5939 216.28 87.5075 216.953 87.6553C217.633 87.8008 218.236 88.1067 218.761 88.5732C219.286 89.0396 219.753 89.5953 220.161 90.2402C220.579 90.8893 220.965 91.554 221.318 92.2341C221.778 93.1247 222.144 93.8494 222.415 94.4082C222.696 94.9712 222.961 95.3582 223.212 95.5693C223.465 95.7871 223.782 95.8267 224.162 95.6883L224.242 95.6591C225.23 95.2996 225.899 94.75 226.25 94.0102C226.603 93.2771 226.581 92.3666 226.185 91.2788C225.775 90.1509 225.206 89.3564 224.479 88.8955C223.752 88.4346 223.061 88.176 222.405 88.1197L222.39 85.5858C223.47 85.6461 224.392 85.9153 225.155 86.3932C225.928 86.8754 226.562 87.4759 227.058 88.1948C227.563 88.918 227.957 89.6666 228.238 90.4408C228.418 90.9347 228.565 91.5238 228.678 92.2082C228.8 92.8969 228.79 93.6072 228.648 94.339C228.509 95.0775 228.148 95.7793 227.567 96.4446C226.985 97.1098 226.083 97.6646 224.862 98.1092L214.731 101.797L213.871 99.434L215.953 98.6761L215.91 98.556C215.518 98.5173 215.063 98.3803 214.547 98.145C214.031 97.9097 213.526 97.5303 213.033 97.0068C212.54 96.4833 212.131 95.7744 211.806 94.88ZM214.059 94.468C214.399 95.4023 214.869 96.1231 215.47 96.6302C216.072 97.1439 216.723 97.4587 217.423 97.5743C218.125 97.6967 218.797 97.6413 219.437 97.4081L221.6 96.6211C221.443 96.5647 221.253 96.3845 221.029 96.0806C220.814 95.7809 220.59 95.4242 220.356 95.0104C220.131 94.6009 219.917 94.199 219.713 93.8046C219.518 93.4145 219.358 93.0987 219.232 92.8573C218.928 92.2724 218.589 91.7458 218.215 91.2775C217.849 90.8134 217.43 90.4822 216.958 90.2839C216.494 90.0899 215.962 90.1022 215.361 90.3208C214.54 90.6196 214.03 91.1492 213.831 91.9095C213.64 92.6741 213.716 93.527 214.059 94.468Z" fill="black"/>
<path d="M212 114.677H233.818V127.845H231.474V117.319H224.102V127.163H221.759V117.319H214.344V128.015H212V114.677Z" fill="black"/>
<path d="M231.871 142.001L210.384 138.212L210.821 135.736L232.308 139.525L231.871 142.001Z" fill="black"/>
<path d="M206.984 152.755C207.523 151.273 208.315 150.114 209.36 149.278C210.41 148.45 211.631 147.961 213.023 147.811C214.42 147.669 215.906 147.885 217.481 148.458C219.056 149.031 220.34 149.824 221.332 150.835C222.329 151.855 222.976 153.005 223.274 154.285C223.576 155.574 223.474 156.912 222.969 158.301C222.677 159.101 222.256 159.844 221.705 160.527C221.153 161.211 220.461 161.764 219.627 162.186C218.8 162.611 217.827 162.835 216.707 162.858C215.588 162.881 214.31 162.632 212.875 162.109L211.874 161.745L216.188 149.892L218.231 150.635L214.791 160.086C215.659 160.402 216.496 160.51 217.303 160.411C218.108 160.318 218.822 160.026 219.447 159.536C220.069 159.052 220.535 158.382 220.846 157.528C221.189 156.587 221.252 155.688 221.035 154.83C220.822 153.982 220.412 153.24 219.805 152.603C219.197 151.966 218.47 151.494 217.622 151.185L216.261 150.689C215.1 150.267 214.042 150.109 213.089 150.215C212.14 150.331 211.324 150.673 210.641 151.24C209.965 151.811 209.454 152.573 209.106 153.527C208.88 154.148 208.763 154.74 208.754 155.304C208.75 155.877 208.858 156.411 209.078 156.907C209.305 157.405 209.649 157.851 210.11 158.246L208.638 160.295C207.951 159.773 207.418 159.122 207.037 158.34C206.663 157.562 206.464 156.696 206.44 155.743C206.424 154.792 206.605 153.796 206.984 152.755Z" fill="black"/>
<path d="M194.932 163.991C195.539 162.94 196.197 162.114 196.904 161.513C197.605 160.909 198.32 160.481 199.048 160.229C199.766 159.98 200.456 159.849 201.119 159.838L201.335 162.276C200.963 162.323 200.524 162.402 200.018 162.512C199.506 162.618 198.976 162.861 198.428 163.242C197.87 163.625 197.345 164.244 196.851 165.099C196.191 166.243 195.922 167.347 196.046 168.411C196.17 169.475 196.822 170.348 198.003 171.03L200.882 172.692L200.988 172.507C200.822 172.198 200.634 171.786 200.423 171.27C200.215 170.765 200.121 170.153 200.142 169.435C200.165 168.727 200.443 167.911 200.976 166.989C201.637 165.845 202.5 164.974 203.567 164.376C204.63 163.784 205.831 163.522 207.17 163.59C208.505 163.664 209.911 164.127 211.387 164.979C212.839 165.817 213.955 166.802 214.737 167.934C215.525 169.07 215.951 170.263 216.016 171.514C216.087 172.769 215.778 173.993 215.089 175.186C214.556 176.109 213.98 176.752 213.36 177.116C212.743 177.489 212.157 177.709 211.602 177.774C211.051 177.849 210.605 177.895 210.267 177.913L210.139 178.135L212.39 179.434L211.176 181.538L196.599 173.122C195.381 172.419 194.55 171.57 194.107 170.576C193.654 169.585 193.518 168.522 193.697 167.387C193.867 166.255 194.279 165.123 194.932 163.991ZM202.761 168.413C202.257 169.287 202.031 170.14 202.083 170.974C202.135 171.807 202.445 172.598 203.014 173.345C203.584 174.092 204.391 174.767 205.437 175.371C206.458 175.96 207.448 176.327 208.406 176.47C209.365 176.613 210.24 176.512 211.031 176.165C211.822 175.817 212.473 175.201 212.984 174.315C213.517 173.393 213.727 172.489 213.615 171.604C213.499 170.725 213.136 169.905 212.526 169.143C211.913 168.387 211.126 167.732 210.167 167.178C209.183 166.61 208.224 166.261 207.29 166.132C206.358 166.012 205.501 166.132 204.719 166.493C203.94 166.863 203.287 167.503 202.761 168.413Z" fill="black"/>
<path d="M191.719 179.25C192.386 178.455 193.14 177.86 193.983 177.464C194.831 177.072 195.7 176.925 196.591 177.024C197.487 177.127 198.344 177.521 199.16 178.206C199.878 178.808 200.341 179.438 200.55 180.095C200.764 180.757 200.801 181.432 200.659 182.12C200.518 182.808 200.27 183.49 199.916 184.166C199.562 184.853 199.179 185.519 198.767 186.165C198.226 187.009 197.781 187.688 197.433 188.202C197.086 188.727 196.883 189.15 196.826 189.473C196.764 189.801 196.888 190.095 197.198 190.355L197.263 190.41C198.068 191.086 198.879 191.39 199.695 191.324C200.506 191.263 201.284 190.789 202.028 189.902C202.8 188.983 203.203 188.093 203.239 187.233C203.275 186.373 203.153 185.645 202.874 185.049L205.061 183.769C205.549 184.735 205.776 185.668 205.744 186.568C205.713 187.478 205.51 188.327 205.135 189.116C204.762 189.915 204.31 190.63 203.78 191.262C203.443 191.664 203.006 192.085 202.469 192.526C201.934 192.976 201.314 193.322 200.609 193.566C199.9 193.814 199.112 193.853 198.245 193.682C197.378 193.51 196.447 193.007 195.451 192.172L187.192 185.242L188.808 183.316L190.506 184.74L190.588 184.642C190.426 184.283 190.317 183.821 190.263 183.256C190.208 182.692 190.284 182.065 190.491 181.376C190.698 180.688 191.108 179.979 191.719 179.25ZM193.203 180.995C192.564 181.757 192.175 182.525 192.036 183.298C191.892 184.077 191.945 184.798 192.195 185.462C192.44 186.131 192.824 186.685 193.346 187.123L195.109 188.602C195.079 188.438 195.14 188.184 195.291 187.838C195.443 187.502 195.64 187.129 195.882 186.72C196.124 186.32 196.365 185.934 196.604 185.56C196.845 185.196 197.038 184.899 197.184 184.67C197.539 184.115 197.826 183.558 198.044 182.999C198.263 182.451 198.341 181.922 198.276 181.414C198.212 180.915 197.935 180.46 197.446 180.049C196.776 179.488 196.063 179.311 195.305 179.518C194.547 179.736 193.847 180.228 193.203 180.995Z" fill="black"/>
<path d="M189.497 196.472L183.169 188.931L185.095 187.315L195.614 199.85L193.753 201.412L192.109 199.453L191.946 199.59C192.187 200.473 192.17 201.359 191.895 202.247C191.625 203.141 191.017 203.985 190.071 204.78C189.222 205.492 188.333 205.941 187.404 206.127C186.48 206.318 185.547 206.211 184.604 205.806C183.666 205.407 182.75 204.674 181.855 203.607L175.172 195.642L177.098 194.026L183.671 201.861C184.498 202.845 185.397 203.398 186.37 203.518C187.347 203.644 188.281 203.333 189.174 202.584C189.789 202.068 190.226 201.474 190.487 200.801C190.742 200.132 190.793 199.426 190.642 198.682C190.49 197.938 190.108 197.201 189.497 196.472Z" fill="black"/>
<path d="M171.312 217.08L170.247 215.235L177.591 210.995L178.656 212.84L171.312 217.08ZM178.476 217.471L176.298 218.728L168.5 205.221C168.145 204.606 167.79 204.196 167.434 203.991C167.075 203.797 166.724 203.729 166.381 203.787C166.035 203.856 165.702 203.982 165.382 204.167C165.142 204.306 164.953 204.431 164.813 204.545C164.677 204.664 164.568 204.76 164.487 204.832L162.915 203.131C163.03 202.991 163.204 202.817 163.437 202.609C163.666 202.394 163.983 202.17 164.389 201.936C165.004 201.581 165.683 201.365 166.427 201.288C167.164 201.215 167.882 201.338 168.582 201.655C169.276 201.976 169.861 202.549 170.337 203.373L178.476 217.471Z" fill="black"/>
<path d="M151.944 207.279C153.425 206.74 154.823 206.602 156.135 206.864C157.443 207.137 158.603 207.758 159.613 208.728C160.62 209.707 161.41 210.984 161.983 212.559C162.556 214.134 162.774 215.626 162.638 217.037C162.497 218.456 162.032 219.691 161.243 220.741C160.449 221.801 159.358 222.584 157.97 223.089C157.169 223.38 156.33 223.535 155.452 223.552C154.574 223.569 153.705 223.394 152.846 223.027C151.989 222.666 151.192 222.064 150.454 221.222C149.717 220.379 149.087 219.24 148.565 217.805L148.2 216.804L160.053 212.49L160.797 214.532L151.346 217.972C151.662 218.84 152.117 219.551 152.712 220.105C153.3 220.662 153.983 221.022 154.76 221.185C155.531 221.35 156.344 221.277 157.198 220.967C158.139 220.624 158.868 220.094 159.385 219.377C159.899 218.668 160.204 217.877 160.301 217.003C160.399 216.128 160.293 215.267 159.985 214.42L159.489 213.058C159.066 211.897 158.508 210.985 157.814 210.324C157.115 209.671 156.329 209.265 155.455 209.107C154.584 208.956 153.671 209.054 152.716 209.401C152.096 209.627 151.567 209.918 151.129 210.274C150.688 210.638 150.348 211.065 150.109 211.552C149.873 212.046 149.752 212.596 149.747 213.203L147.231 213.393C147.189 212.531 147.345 211.704 147.699 210.91C148.055 210.123 148.59 209.414 149.306 208.783C150.023 208.159 150.903 207.658 151.944 207.279Z" fill="black"/>
<path d="M136.451 211.522C136.969 211.43 137.445 211.538 137.881 211.843C138.318 212.148 138.581 212.56 138.672 213.077C138.764 213.595 138.657 214.072 138.351 214.508C138.046 214.944 137.635 215.207 137.117 215.299C136.599 215.39 136.123 215.283 135.687 214.978C135.25 214.672 134.987 214.261 134.896 213.743C134.835 213.4 134.867 213.07 134.991 212.753C135.109 212.436 135.295 212.165 135.551 211.94C135.801 211.723 136.101 211.583 136.451 211.522Z" fill="black"/>
</svg>
